<svg width="200" height="200" viewBox="0 0 200 200" fill="none" xmlns="http://www.w3.org/2000/svg">
<path fill-rule="evenodd" clip-rule="evenodd" d="M103.333 197.218C119.028 197.219 134.404 192.787 147.69 184.433C160.977 176.08 171.634 164.144 178.436 149.999C185.237 135.855 187.906 120.078 186.134 104.483C184.363 88.889 178.224 74.112 168.423 61.8534L174.719 55.65C176.463 53.9065 177.442 51.5418 177.442 49.0762C177.442 46.6105 176.463 44.2459 174.719 42.5024C172.976 40.7589 170.611 39.7794 168.145 39.7794C165.68 39.7794 163.315 40.7589 161.572 42.5024L155.368 48.7984C143.087 38.9313 128.25 32.7653 112.592 31.0214V21.2996H131.11C133.566 21.2996 135.921 20.3241 137.657 18.5877C139.393 16.8514 140.369 14.4963 140.369 12.0407C140.369 9.58512 139.393 7.23009 137.657 5.49372C135.921 3.75734 133.566 2.78186 131.11 2.78186H75.5567C73.1011 2.78186 70.7461 3.75734 69.0097 5.49372C67.2734 7.23009 66.2979 9.58512 66.2979 12.0407C66.2979 14.4963 67.2734 16.8514 69.0097 18.5877C70.7461 20.3241 73.1011 21.2996 75.5567 21.2996H94.0745V31.0214C77.964 32.8732 63.335 39.1692 51.2985 48.7984L45.0951 42.5024C43.3516 40.7589 40.9869 39.7794 38.5213 39.7794C36.0556 39.7794 33.691 40.7589 31.9475 42.5024C30.204 44.2459 29.2245 46.6105 29.2245 49.0762C29.2245 51.5418 30.204 53.9065 31.9475 55.65L38.2435 61.8534C28.4431 74.112 22.3039 88.889 20.5325 104.483C18.7611 120.078 21.4297 135.855 28.231 149.999C35.0323 164.144 45.6897 176.08 58.9764 184.433C72.2631 192.787 87.6388 197.219 103.333 197.218ZM137.591 92.5929C138.928 90.8099 139.578 88.6043 139.42 86.3812C139.262 84.158 138.307 82.0665 136.731 80.4905C135.155 78.9146 133.064 77.96 130.84 77.802C128.617 77.644 126.412 78.2932 124.629 79.6305L96.8521 107.407C95.5149 109.19 94.8657 111.396 95.0236 113.619C95.1816 115.842 96.1362 117.933 97.7122 119.509C99.2882 121.085 101.38 122.04 103.603 122.198C105.826 122.356 108.032 121.707 109.815 120.369L137.591 92.5929Z" fill="white"/>
</svg>
