<svg width="15" height="16" viewBox="0 0 15 16" fill="none" xmlns="http://www.w3.org/2000/svg">
<path d="M14.4643 5.86667H0.535714C0.241071 5.86667 0 6.10667 0 6.4V14.4C0 15.28 0.723214 16 1.60714 16H13.3929C14.2768 16 15 15.28 15 14.4V6.4C15 6.10667 14.7589 5.86667 14.4643 5.86667ZM4.82143 13.3333C4.82143 13.6267 4.58036 13.8667 4.28571 13.8667H3.21429C2.91964 13.8667 2.67857 13.6267 2.67857 13.3333V12.2667C2.67857 11.9733 2.91964 11.7333 3.21429 11.7333H4.28571C4.58036 11.7333 4.82143 11.9733 4.82143 12.2667V13.3333ZM8.57143 13.3333C8.57143 13.6267 8.33036 13.8667 8.03571 13.8667H6.96429C6.66964 13.8667 6.42857 13.6267 6.42857 13.3333V12.2667C6.42857 11.9733 6.66964 11.7333 6.96429 11.7333H8.03571C8.33036 11.7333 8.57143 11.9733 8.57143 12.2667V13.3333ZM8.57143 9.6C8.57143 9.89333 8.33036 10.1333 8.03571 10.1333H6.96429C6.66964 10.1333 6.42857 9.89333 6.42857 9.6V8.53333C6.42857 8.24 6.66964 8 6.96429 8H8.03571C8.33036 8 8.57143 8.24 8.57143 8.53333V9.6ZM12.3214 9.6C12.3214 9.89333 12.0804 10.1333 11.7857 10.1333H10.7143C10.4196 10.1333 10.1786 9.89333 10.1786 9.6V8.53333C10.1786 8.24 10.4196 8 10.7143 8H11.7857C12.0804 8 12.3214 8.24 12.3214 8.53333V9.6ZM13.3929 1.6H12.0536V1.06667C12.0536 0.48 11.5714 0 10.9821 0C10.3929 0 9.91071 0.48 9.91071 1.06667V1.6H5.08929V1.06667C5.08929 0.48 4.60714 0 4.01786 0C3.42857 0 2.94643 0.48 2.94643 1.06667V1.6H1.60714C0.723214 1.6 0 2.32 0 3.2V3.73333C0 4.02667 0.241071 4.26667 0.535714 4.26667H14.4643C14.7589 4.26667 15 4.02667 15 3.73333V3.2C15 2.32 14.2768 1.6 13.3929 1.6Z" fill="white"/>
</svg>
