<svg width="8" height="6" viewBox="0 0 8 6" fill="none" xmlns="http://www.w3.org/2000/svg">
<path fill-rule="evenodd" clip-rule="evenodd" d="M7.76543 0.239338C7.91563 0.392784 8 0.600787 8 0.817658C8 1.03453 7.91563 1.24253 7.76543 1.39598L3.48772 5.76066C3.33733 5.91392 3.13347 6 2.92092 6C2.70837 6 2.50451 5.91392 2.35412 5.76066L0.215267 3.57832C0.0735893 3.42318 -0.00354127 3.21799 0.000124959 3.00598C0.00379119 2.79396 0.087968 2.59167 0.234921 2.44173C0.381875 2.29179 0.580131 2.2059 0.787922 2.20216C0.995713 2.19842 1.19682 2.27712 1.34886 2.42168L2.92092 4.0257L6.63184 0.239338C6.78223 0.0860821 6.98609 0 7.19863 0C7.41118 0 7.61504 0.0860821 7.76543 0.239338Z" fill="#222225"/>
</svg>
