<svg width="26" height="26" viewBox="0 0 26 26" fill="none" xmlns="http://www.w3.org/2000/svg">
<path fill-rule="evenodd" clip-rule="evenodd" d="M13 26C16.4478 26 19.7544 24.6304 22.1924 22.1924C24.6304 19.7544 26 16.4478 26 13C26 9.55219 24.6304 6.24559 22.1924 3.80761C19.7544 1.36964 16.4478 0 13 0C9.55219 0 6.24559 1.36964 3.80761 3.80761C1.36964 6.24559 0 9.55219 0 13C0 16.4478 1.36964 19.7544 3.80761 22.1924C6.24559 24.6304 9.55219 26 13 26ZM14.1818 4.72727C14.1818 4.41384 14.0573 4.11324 13.8357 3.8916C13.614 3.66997 13.3134 3.54545 13 3.54545C12.6866 3.54545 12.386 3.66997 12.1643 3.8916C11.9427 4.11324 11.8182 4.41384 11.8182 4.72727V13C11.8182 13.3191 11.9364 13.6145 12.1727 13.8273L15.7182 17.3727C15.9458 17.5434 16.2273 17.6263 16.5111 17.6061C16.7948 17.586 17.0618 17.4641 17.2629 17.2629C17.4641 17.0618 17.586 16.7948 17.6061 16.5111C17.6263 16.2273 17.5434 15.9458 17.3727 15.7182L14.1818 12.5036V4.72727Z" fill="white"/>
</svg>
