<svg width="18" height="18" viewBox="0 0 18 18" fill="none" xmlns="http://www.w3.org/2000/svg">
<path d="M15.4448 17.0657C15.9362 17.4343 16.6444 17.3839 17.0787 16.9496C17.513 16.5153 17.5633 15.8071 17.1948 15.3157L10.5948 8.69075L17.2198 2.06575C17.6357 1.57339 17.6015 0.821488 17.1425 0.368992C16.6835 -0.0835033 15.9312 -0.107097 15.4448 0.315749L8.81982 6.91575L2.19482 0.290749C1.70246 -0.125156 0.950555 -0.0908939 0.49806 0.368065C0.0455649 0.827024 0.021971 1.57934 0.444817 2.06575L7.04482 8.69075L0.419817 15.3157C-0.119089 15.7842 -0.14014 16.6539 0.362315 17.1493C0.870805 17.6506 1.7395 17.6048 2.19482 17.0657L8.81982 10.4657L15.4448 17.0907V17.0657Z" fill="white"/>
</svg>
