<svg width="34" height="34" viewBox="0 0 34 34" fill="none" xmlns="http://www.w3.org/2000/svg">
<path fill-rule="evenodd" clip-rule="evenodd" d="M34 17C34 7.61028 26.3889 0 17.0003 0C7.61115 0 0 7.61057 0 17C0 26.3883 7.61115 33.9994 17.0003 33.9994C26.3889 33.9994 34 26.3883 34 17ZM29.8671 21.4144C28.6294 19.4727 27.3911 17.5306 26.1532 15.5891C25.9444 15.2611 25.4915 15.2691 25.2832 15.5924C24.4235 16.9267 23.5636 18.2611 22.7036 19.5955L21.5412 21.3994C21.4062 21.6088 21.4518 21.8109 21.5785 21.9508C21.6569 22.0694 21.7873 22.154 21.9736 22.1545L23.9438 22.1593C20.9133 26.9743 13.5578 27.4155 10.1051 22.4709C8.99917 20.8875 6.38262 22.3995 7.5 24.0001C9.93783 27.4909 13.9419 29.4893 18.2208 28.9995C22.3381 28.5279 25.6612 25.8654 27.3112 22.1676L29.4296 22.173C29.8016 22.1738 30.0765 21.7427 29.8671 21.4144ZM15.7787 4.97695C20.0578 4.48684 24.0617 6.48552 26.5 9.97635C27.6177 11.5767 25.0009 13.0887 23.895 11.5057C20.4154 6.52414 12.9742 7.01023 9.98828 11.9307L11.463 11.9342C11.6495 11.9347 11.7799 12.0195 11.8583 12.1382C11.9844 12.278 12.0298 12.4798 11.8951 12.6892C11.3372 13.5551 10.7791 14.421 10.2211 15.287C9.53166 16.3567 8.84223 17.4264 8.15303 18.4963C7.94444 18.8192 7.49188 18.8273 7.28279 18.4995L3.56945 12.6739C3.35978 12.3456 3.63491 11.9148 4.00723 11.9159L6.64209 11.9223C8.27441 8.16608 11.6203 5.45284 15.7787 4.97695Z" fill="white"/>
</svg>
