<svg width="30" height="30" viewBox="0 0 30 30" fill="none" xmlns="http://www.w3.org/2000/svg">
<path d="M17.8125 1.25C18.325 1.25 18.75 1.675 18.75 2.1875V3.75H25.3125C25.825 3.75 26.25 4.175 26.25 4.6875V5.3125C26.25 5.825 25.825 6.25 25.3125 6.25H4.6875C4.43886 6.25 4.2004 6.15123 4.02459 5.97541C3.84877 5.7996 3.75 5.56114 3.75 5.3125V4.6875C3.75 4.175 4.175 3.75 4.6875 3.75H11.25V2.1875C11.25 1.675 11.675 1.25 12.1875 1.25H17.8125Z" fill="white"/>
<path fill-rule="evenodd" clip-rule="evenodd" d="M6.32501 8.75C6.15435 8.74969 5.98543 8.78434 5.82867 8.85179C5.67191 8.91925 5.53062 9.01809 5.41351 9.14222C5.2964 9.26636 5.20595 9.41316 5.14774 9.57358C5.08952 9.73401 5.06477 9.90465 5.07501 10.075L6.02501 25.2375C6.08547 26.1903 6.5071 27.0842 7.20391 27.7369C7.90073 28.3896 8.82026 28.7519 9.77501 28.75H20.225C21.1798 28.7519 22.0993 28.3896 22.7961 27.7369C23.4929 27.0842 23.9145 26.1903 23.975 25.2375L24.9125 10.075C24.9227 9.90465 24.898 9.73401 24.8398 9.57358C24.7816 9.41316 24.6911 9.26636 24.574 9.14222C24.4569 9.01809 24.3156 8.91925 24.1588 8.85179C24.0021 8.78434 23.8332 8.74969 23.6625 8.75H6.33751H6.32501ZM13.75 15C13.75 14.6685 13.6183 14.3505 13.3839 14.1161C13.1495 13.8817 12.8315 13.75 12.5 13.75C12.1685 13.75 11.8505 13.8817 11.6161 14.1161C11.3817 14.3505 11.25 14.6685 11.25 15V22.5C11.25 22.8315 11.3817 23.1495 11.6161 23.3839C11.8505 23.6183 12.1685 23.75 12.5 23.75C12.8315 23.75 13.1495 23.6183 13.3839 23.3839C13.6183 23.1495 13.75 22.8315 13.75 22.5V15ZM17.5 13.75C17.8315 13.75 18.1495 13.8817 18.3839 14.1161C18.6183 14.3505 18.75 14.6685 18.75 15V22.5C18.75 22.8315 18.6183 23.1495 18.3839 23.3839C18.1495 23.6183 17.8315 23.75 17.5 23.75C17.1685 23.75 16.8505 23.6183 16.6161 23.3839C16.3817 23.1495 16.25 22.8315 16.25 22.5V15C16.25 14.6685 16.3817 14.3505 16.6161 14.1161C16.8505 13.8817 17.1685 13.75 17.5 13.75Z" fill="white"/>
</svg>
